<svg width="573" height="517" viewBox="0 0 573 517" fill="none" xmlns="http://www.w3.org/2000/svg">
<path d="M327.87 436.309C328.304 436.778 328.259 437.248 327.956 437.691C327.776 437.954 327.756 438.212 327.778 438.505C327.936 440.609 328.09 442.714 328.241 444.818C328.295 445.574 328.335 446.331 328.378 447.088C328.404 447.525 328.57 447.685 329.051 447.593C330.197 447.374 331.354 447.209 332.51 447.043C333.413 446.913 333.648 447.137 333.647 448.062C333.646 451.859 333.642 455.656 333.645 459.452C333.648 465.322 333.657 471.191 333.663 477.06C333.664 478.135 333.382 478.406 332.323 478.405C327.418 478.402 322.513 478.378 317.608 478.425C316.322 478.437 315.153 478.196 313.99 477.658C311.814 476.65 309.606 475.71 307.401 474.763C306.777 474.494 306.493 474.087 306.494 473.394C306.507 468.776 306.495 464.159 306.494 459.541C306.494 458.838 306.724 458.591 307.415 458.488C308.206 458.37 308.994 458.236 309.785 458.123C310.238 458.058 310.43 457.849 310.468 457.36C310.768 453.458 311.097 449.559 311.422 445.659C311.749 441.718 312.066 437.777 312.423 433.839C312.499 432.999 312.533 432.162 312.546 431.322C312.555 430.763 312.784 430.528 313.373 430.533C315.569 430.551 317.765 430.532 319.96 430.513C320.32 430.51 320.477 430.634 320.508 431C320.655 432.713 320.828 434.423 320.975 436.136C321.18 438.523 321.371 440.912 321.567 443.3C321.7 444.912 321.831 446.525 321.964 448.137C321.977 448.297 322.003 448.456 322.028 448.652C322.772 448.693 323.471 448.56 324.161 448.397C324.657 448.281 324.562 447.809 324.573 447.476C324.613 446.306 324.734 445.144 324.816 443.978C324.94 442.2 325.003 440.417 325.094 438.635C325.113 438.263 325.058 437.923 324.889 437.57C324.484 436.729 324.855 436.122 325.772 436.136C326.459 436.147 327.167 435.946 327.87 436.309ZM315.364 453.401C314.02 453.412 313.716 453.721 313.715 455.082C313.713 456.436 313.714 457.79 313.717 459.143C313.719 460.247 314.074 460.621 315.193 460.621C319.747 460.624 324.3 460.618 328.853 460.604C329.844 460.601 330.253 460.164 330.257 459.154C330.261 457.8 330.25 456.446 330.253 455.093C330.256 453.786 329.884 453.399 328.587 453.399C324.219 453.398 319.85 453.4 315.364 453.401ZM316.511 471.73C316.512 470.787 316.525 469.843 316.51 468.899C316.499 468.212 316.263 467.973 315.579 467.952C314.903 467.931 314.225 467.939 313.548 467.945C312.789 467.953 312.504 468.214 312.502 468.986C312.499 469.909 312.543 470.831 312.571 471.753C312.588 472.307 312.871 472.562 313.433 472.552C314.192 472.538 314.951 472.552 315.71 472.558C316.199 472.563 316.496 472.363 316.511 471.73ZM323.394 468.644C323.359 468.117 323.01 467.957 322.555 467.95C321.818 467.94 321.081 467.936 320.344 467.949C319.721 467.961 319.422 468.208 319.411 468.842C319.393 469.862 319.442 470.884 319.477 471.905C319.493 472.352 319.749 472.557 320.199 472.552C320.977 472.543 321.755 472.559 322.532 472.55C323.177 472.543 323.374 472.35 323.384 471.701C323.399 470.719 323.395 469.736 323.394 468.644ZM326.595 472.414C327.536 472.71 328.502 472.492 329.454 472.553C330.019 472.589 330.279 472.297 330.275 471.735C330.269 470.793 330.285 469.85 330.277 468.908C330.271 468.226 330.034 467.973 329.361 467.953C328.644 467.933 327.927 467.952 327.21 467.948C326.659 467.944 326.354 468.223 326.338 468.76C326.315 469.597 326.314 470.435 326.335 471.272C326.345 471.632 326.289 472.017 326.595 472.414ZM322.813 463.769C322.289 462.717 320.962 462.775 320.397 463.263C319.82 463.761 319.698 464.566 320.12 465.197C320.565 465.863 321.4 466.096 322.122 465.755C322.848 465.412 323.133 464.674 322.813 463.769ZM316.091 464.677C316.097 464.515 316.127 464.349 316.105 464.191C316.015 463.548 315.474 463.038 314.787 462.928C314.095 462.817 313.49 463.108 313.19 463.693C312.878 464.302 312.996 464.896 313.471 465.431C314.181 466.229 315.778 465.981 316.091 464.677ZM329.759 464.097C329.676 463.768 329.509 463.487 329.251 463.272C328.79 462.889 328.259 462.775 327.699 462.998C327.172 463.208 326.822 463.598 326.765 464.187C326.676 465.092 327.289 465.841 328.141 465.884C329.159 465.935 329.777 465.295 329.759 464.097Z" fill="black"/>
<path d="M252.891 455.775C253.917 456.529 254.671 457.466 255.318 458.573C256.099 458.163 256.853 457.763 257.612 457.37C258.049 457.144 258.497 456.94 258.931 456.708C259.219 456.553 259.386 456.643 259.516 456.915C260.555 459.084 261.043 461.36 260.881 463.769C260.855 464.157 260.65 464.232 260.312 464.229C259.184 464.218 258.055 464.244 256.927 464.221C256.46 464.211 256.231 464.362 256.122 464.837C255.833 466.091 255.296 467.241 254.474 468.239C254.217 468.552 254.266 468.773 254.532 469.022C255.34 469.78 256.129 470.558 256.952 471.298C257.296 471.607 257.291 471.805 256.967 472.135C255.445 473.685 253.638 474.778 251.639 475.594C251.217 475.766 251.045 475.626 250.904 475.257C250.518 474.241 250.1 473.238 249.729 472.217C249.518 471.636 249.292 471.307 248.54 471.455C247.809 471.599 247.02 471.551 246.272 471.461C245.753 471.398 245.589 471.586 245.441 472.011C245.056 473.114 244.626 474.201 244.234 475.301C244.11 475.65 243.981 475.818 243.574 475.637C241.632 474.773 239.796 473.756 238.249 472.263C237.843 471.87 237.808 471.602 238.244 471.222C239.001 470.562 239.719 469.858 240.463 469.182C240.835 468.845 240.951 468.544 240.58 468.093C239.773 467.114 239.235 465.986 238.962 464.744C238.868 464.313 238.623 464.199 238.218 464.207C237.172 464.227 236.125 464.206 235.079 464.226C234.646 464.234 234.479 464.088 234.439 463.632C234.229 461.261 234.665 459.023 235.728 456.901C235.764 456.828 235.809 456.759 235.858 456.693C235.881 456.662 235.921 456.644 235.995 456.59C236.768 456.904 237.481 457.383 238.239 457.776C238.729 458.03 239.251 458.427 239.747 458.411C240.268 458.394 240.413 457.661 240.725 457.249C241.636 456.048 242.84 455.259 244.197 454.685C244.603 454.513 244.705 454.339 244.598 453.908C244.336 452.854 244.149 451.783 243.901 450.726C243.813 450.353 243.873 450.167 244.267 450.059C246.455 449.459 248.641 449.469 250.833 450.025C251.161 450.109 251.286 450.257 251.196 450.642C250.941 451.738 250.767 452.853 250.513 453.949C250.415 454.373 250.569 454.532 250.922 454.679C251.603 454.964 252.266 455.293 252.891 455.775ZM244.631 458.875C243.91 459.451 243.368 460.173 243.056 461.034C242.433 462.752 242.739 464.359 243.856 465.773C245.058 467.295 246.692 467.805 248.57 467.463C251.683 466.895 253.34 463.328 251.851 460.541C250.655 458.306 247.448 456.962 244.631 458.875Z" fill="black"/>
<path d="M257.231 433.095C257.598 433.177 257.702 433.379 257.691 433.692C257.675 434.163 257.648 434.64 257.698 435.106C257.76 435.687 257.489 435.969 256.965 436.007C256.361 436.05 256.038 436.36 255.898 436.92C255.869 437.039 255.828 437.163 255.759 437.261C255.323 437.883 255.4 438.464 255.86 439.037C256.149 439.395 256.079 439.665 255.688 439.943C255.324 440.2 255.016 440.545 254.718 440.882C254.416 441.223 254.122 441.244 253.749 441.01C253.477 440.84 253.189 440.57 252.859 440.663C252.311 440.819 251.759 441.012 251.268 441.292C250.932 441.483 250.996 441.954 250.918 442.305C250.819 442.754 250.628 442.987 250.127 442.933C249.722 442.89 249.304 442.888 248.899 442.933C248.385 442.991 248.141 442.77 248.035 442.295C247.961 441.962 248.012 441.503 247.715 441.338C247.167 441.035 246.557 440.829 245.953 440.646C245.694 440.568 245.456 440.81 245.247 440.968C244.828 441.286 244.459 441.238 244.107 440.871C244.007 440.768 243.916 440.651 243.8 440.57C242.961 439.985 242.623 439.322 243.389 438.419C243.555 438.225 243.492 437.95 243.386 437.713C243.278 437.469 243.137 437.233 243.076 436.978C242.929 436.364 242.591 436.027 241.937 435.991C241.428 435.962 241.17 435.69 241.232 435.136C241.276 434.751 241.276 434.354 241.234 433.969C241.171 433.401 241.425 433.101 241.956 433.041C242.612 432.967 243 432.651 243.105 431.984C243.133 431.808 243.226 431.63 243.329 431.481C243.631 431.045 243.55 430.674 243.26 430.25C242.712 429.447 242.735 429.432 243.445 428.811C243.599 428.676 243.754 428.541 243.899 428.396C244.362 427.93 244.823 427.707 245.41 428.243C245.743 428.547 246.157 428.538 246.551 428.287C246.671 428.21 246.804 428.125 246.94 428.107C247.688 428.011 247.939 427.515 248.02 426.846C248.076 426.391 248.332 426.184 248.821 426.226C249.247 426.262 249.686 426.255 250.11 426.197C250.585 426.131 250.78 426.338 250.885 426.76C250.971 427.11 250.903 427.594 251.217 427.774C251.743 428.076 252.34 428.267 252.926 428.443C253.216 428.53 253.466 428.279 253.696 428.117C254.104 427.828 254.441 427.891 254.789 428.227C255.2 428.623 255.639 428.991 256.085 429.387C255.893 430.098 255.099 430.637 255.624 431.572C256.012 432.265 256.153 433.093 257.231 433.095ZM251.079 438.621C252.861 437.869 253.866 436.261 253.792 434.283C253.731 432.665 252.482 431.039 250.889 430.504C249.16 429.924 247.26 430.423 246.19 431.739C244.868 433.366 244.763 435.42 245.917 437.097C247.036 438.722 248.998 439.326 251.079 438.621Z" fill="black"/>
<path d="M319.972 425.165C320.327 426.233 320.291 427.301 320.358 428.358C320.376 428.639 320.212 428.76 319.938 428.76C317.725 428.759 315.512 428.76 313.298 428.763C312.906 428.763 312.816 428.525 312.839 428.195C312.899 427.337 312.97 426.479 313.017 425.62C313.04 425.197 313.252 424.946 313.656 424.943C315.602 424.927 317.547 424.93 319.493 424.942C319.642 424.943 319.79 425.061 319.972 425.165Z" fill="black"/>
<path d="M328.246 455.314C328.468 456.365 328.341 457.389 328.363 458.41C328.373 458.855 328.018 458.788 327.741 458.789C325.609 458.793 323.477 458.792 321.345 458.792C319.664 458.793 317.983 458.798 316.302 458.79C315.558 458.787 315.51 458.726 315.509 457.971C315.508 457.254 315.515 456.536 315.509 455.819C315.505 455.416 315.672 455.216 316.094 455.216C320.051 455.221 324.007 455.218 327.964 455.22C328.043 455.22 328.122 455.259 328.246 455.314Z" fill="black"/>
<path d="M248.78 432.125C250.022 431.863 251.099 432.302 251.628 433.252C252.202 434.283 252.077 435.502 251.312 436.33C250.536 437.172 249.376 437.408 248.335 436.877C247.328 436.365 246.938 435.481 247.019 434.384C247.1 433.271 247.694 432.532 248.78 432.125Z" fill="black"/>
<path fill-rule="evenodd" clip-rule="evenodd" d="M326.595 494.5C327.095 503 313.508 509.719 307.156 512.366C302.479 514.315 297.626 515.658 292.617 516.407C288.303 517.052 283.966 517.118 279.613 516.848C274.96 516.558 270.439 515.603 265.991 514.268C259.35 512.276 253.352 509.039 247.866 504.824C241.447 499.891 239.5 499.5 241.397 491.021C242.652 488.11 244.689 485.913 247.42 484.323C252.852 481.163 258.536 478.493 264.142 475.671C264.277 475.603 264.426 475.484 264.641 475.661C264.4 476.772 264.076 477.885 263.763 479.003C263.04 481.588 262.368 484.187 261.629 486.768C261.216 488.209 262.226 489.507 263.502 489.667C264.782 489.828 266.055 490.045 267.327 490.253C267.909 490.349 267.961 490.51 267.57 490.943C267.336 491.201 267.076 491.435 266.831 491.683C265.893 492.631 264.938 493.563 264.024 494.534C263.181 495.431 263.125 496.275 263.752 497.331C264.304 498.261 264.85 499.196 265.432 500.192L265.572 500.433C266.006 501.177 266.442 501.921 266.874 502.666C268.458 505.399 270.04 508.133 271.628 510.865C271.728 511.037 271.787 511.278 272.009 511.325C272.779 511.487 273.544 511.696 274.353 511.696C274.385 511.389 274.246 511.201 274.14 511.008C272.332 507.718 270.518 504.432 268.618 501.193C267.788 499.778 266.94 498.372 266.123 496.949C265.677 496.172 265.726 495.953 266.346 495.336C266.724 494.959 267.109 494.59 267.483 494.209C268.244 493.433 269.034 492.681 269.751 491.865C270.712 490.771 270.582 489.588 269.473 488.703C269.061 488.374 268.588 488.196 268.07 488.121C267.016 487.969 265.961 487.817 264.908 487.656C263.973 487.514 263.811 487.291 264.047 486.391C264.651 484.093 265.284 481.803 265.883 479.504C266.503 477.126 267.146 474.752 267.677 472.353C267.921 471.25 268.283 470.321 269.334 469.789C269.739 469.585 269.836 469.254 269.83 468.826C269.812 467.472 269.785 466.116 269.834 464.764C269.862 464 269.641 463.39 269.195 462.78C267.787 460.856 266.796 458.723 266.226 456.408C266.11 455.935 265.889 455.749 265.425 455.654C262.881 455.136 261.309 453.494 260.565 451.103C259.704 448.335 260.33 445.875 262.486 443.872C262.822 443.56 262.943 443.263 262.828 442.794C262.438 441.202 262.133 439.589 261.726 438.002C261.123 435.654 260.817 433.292 261.177 430.878C261.628 427.864 262.933 425.351 265.521 423.61C265.768 423.444 265.915 423.225 266.029 422.943C267.038 420.448 268.692 418.432 270.961 417.04C276.488 413.647 282.292 413.318 288.28 415.757C289.845 416.395 291.242 417.345 292.736 418.116C294.438 418.995 296.002 418.845 297.098 416.978C297.682 415.983 298.653 415.882 299.571 416.601C299.943 416.892 300.292 417.211 300.643 417.526C305.679 422.048 307.702 427.654 306.621 434.339C306.164 437.168 305.616 439.982 305.08 442.797C304.999 443.218 305.083 443.478 305.397 443.752C306.878 445.051 307.614 446.696 307.717 448.667C307.868 451.539 305.747 455.221 302.357 455.639C301.986 455.684 301.806 455.881 301.713 456.26C301.105 458.735 300.122 461.047 298.575 463.088C298.192 463.593 298.051 464.112 298.071 464.736C298.107 465.884 298.143 467.038 298.062 468.181C297.999 469.069 298.266 469.669 299.051 470.082C299.623 470.383 299.939 470.871 300.081 471.527C300.388 472.949 300.769 474.354 301.111 475.768C301.965 479.293 302.914 482.794 303.899 486.285C304.208 487.379 304.095 487.519 302.986 487.651C301.928 487.777 300.874 487.938 299.826 488.125C298.832 488.302 298.091 488.825 297.743 489.821C297.389 490.834 297.871 491.555 298.542 492.226C299.543 493.227 300.536 494.237 301.532 495.242C302.245 495.963 302.267 496.102 301.778 496.997C301.611 497.303 301.425 497.599 301.25 497.9C298.706 502.282 296.202 506.686 293.803 511.149C293.703 511.336 293.535 511.518 293.655 511.861C294.423 511.692 295.196 511.526 295.966 511.351C296.193 511.299 296.266 511.089 296.368 510.912C298.951 506.458 301.43 501.945 304.079 497.529C304.902 496.157 304.811 495.578 303.762 494.387C302.731 493.215 301.638 492.103 300.537 490.999C300.394 490.856 300.211 490.705 300.268 490.477C300.334 490.213 300.588 490.27 300.782 490.243C301.918 490.084 303.055 489.932 304.191 489.77C305.09 489.642 305.847 489.293 306.235 488.4C306.552 487.672 306.384 486.953 306.19 486.235C305.289 482.89 304.388 479.546 303.489 476.2C303.433 475.991 303.323 475.775 303.484 475.556C303.713 475.512 303.875 475.664 304.053 475.749C305.758 476.555 307.461 477.368 309.163 478.181C312.643 479.843 316.12 481.51 319.439 483.486C321.68 484.819 323.769 486.31 325.241 488.526C325.945 489.585 326.305 491.641 326.595 494.5ZM284.325 439.617C285.954 439.9 287.592 439.868 289.232 439.867C292.303 439.754 295.112 439.077 297.767 437.785C298.552 437.403 298.664 437.44 298.835 438.331C299.223 440.343 299.438 442.405 300.02 444.359C300.516 446.025 300.332 447.565 299.975 449.168C299.469 451.443 299.248 453.779 298.498 456.004C296.943 460.62 294.171 464.285 289.9 466.669C285.526 469.111 281.169 468.773 277.063 466.011C272.178 462.724 269.52 457.989 268.528 452.25C268.2 450.354 267.845 448.462 267.505 446.569C267.48 446.431 267.43 446.275 267.468 446.151C268.156 443.907 268.291 441.557 268.794 439.278C269.217 437.358 269.681 435.446 270.323 433.583C270.401 433.356 270.451 433.114 270.653 432.919C271.124 433.317 271.577 433.697 272.027 434.08C275.592 437.112 279.75 438.82 284.325 439.617ZM293.523 489.081C293.038 490.985 292.573 492.893 292.1 494.8C291.112 498.7 290.137 502.5 289.162 506.299L289.158 506.314L289.035 506.307C288.888 505.096 288.747 503.884 288.593 502.674C288.204 499.631 287.806 496.59 287.419 493.547C287.187 491.723 286.972 489.897 286.74 488.073C286.691 487.694 286.814 487.396 287.059 487.121C287.741 486.354 288.357 485.534 288.924 484.68C289.189 484.282 289.419 484.27 289.745 484.601C290.884 485.753 292.033 486.894 293.18 488.037C293.473 488.329 293.635 488.64 293.523 489.081ZM278.868 505.752C277.435 501.091 276.223 496.38 275.124 491.64C274.892 490.706 274.697 489.868 274.492 489.033C274.405 488.675 274.401 488.363 274.703 488.078C275.867 486.981 277.022 485.875 278.169 484.761C278.554 484.387 278.856 484.415 279.172 484.847C279.777 485.674 280.395 486.493 281.023 487.303C281.246 487.59 281.283 487.904 281.239 488.233C280.873 490.949 280.488 493.663 280.132 496.38C279.83 498.693 279.563 501.011 279.274 503.326C279.173 504.132 279.055 504.937 278.868 505.752ZM294.262 470.562C291.836 472.359 289.277 473.946 286.609 475.36C285.997 475.669 285.448 475.908 284.941 476.215C284.416 476.534 283.958 476.535 283.397 476.255C280.09 474.607 276.859 472.837 273.831 470.709C273.357 470.376 273.142 470.008 273.193 469.433C273.238 468.924 273.209 468.409 273.222 467.897C273.224 467.823 273.278 467.75 273.329 467.626C280.518 472.905 287.648 472.882 294.785 467.351C294.785 468.288 294.8 469.138 294.777 469.987C294.769 470.285 294.473 470.406 294.262 470.562ZM294.842 485.073C293.819 484.265 292.997 483.285 292.069 482.424C290.872 481.236 289.743 480.104 288.602 478.984C288.261 478.649 288.298 478.396 288.699 478.164C291.467 476.558 294.105 474.753 296.715 472.929C297.503 473.492 297.586 473.723 297.386 474.586C296.647 477.776 295.912 480.967 295.18 484.158C295.116 484.438 295.049 484.713 294.842 485.073ZM272.839 484.155C272.315 482.219 271.888 480.26 271.462 478.302C271.137 476.928 270.83 475.656 270.533 474.382C270.401 473.81 270.47 473.683 271.212 473.001C273.957 474.969 276.881 476.691 279.797 478.474C279.451 479.111 278.952 479.48 278.52 479.904C276.972 481.427 275.425 482.953 273.851 484.45C273.197 485.073 273.069 485.005 272.839 484.155ZM289.61 436.4C288.435 436.585 287.283 436.504 286.15 436.145C285.65 435.888 285.097 435.936 284.754 435.445C285.212 435.16 285.669 435.209 286.097 435.196C289.749 435.079 293.115 434.093 296.112 431.957C296.348 431.789 296.601 431.57 296.883 431.794C297.15 432.007 296.959 432.301 296.877 432.535C296.242 434.365 295.088 435.6 293.05 435.76C291.879 435.852 290.762 436.218 289.61 436.4ZM302.841 451.97C302.965 450.341 303.259 448.799 303.509 447.252C303.647 446.866 303.764 446.904 303.941 447.141C304.925 448.458 304.368 451.137 302.841 451.97ZM264.335 446.791L264.996 450.855C265.021 451.254 265.189 451.539 265.086 451.856C263.371 451.032 263.136 448.06 264.335 446.791Z" fill="black"/>
<path d="M62.2644 282.788C64.9624 281.444 66.5074 279.309 66.9898 276.387C67.179 275.241 66.9883 275.406 68.1556 275.352C72.0288 275.173 75.6207 276.06 78.8269 278.26C83.1748 281.244 85.71 285.37 86.3333 290.623C86.6117 292.97 86.3881 295.332 86.448 297.685C86.4573 298.052 86.3038 298.232 85.9286 298.211C85.7831 298.203 85.6367 298.211 85.4907 298.211C67.1773 298.211 48.8639 298.211 30.5504 298.211C29.5506 298.211 29.5496 298.21 29.5493 297.218C29.5488 295.549 29.5231 293.88 29.5554 292.212C29.6343 288.144 30.9719 284.521 33.6233 281.441C37.1799 277.309 41.7185 275.273 47.1855 275.358C47.7044 275.366 48.3149 275.164 48.7173 275.448C49.109 275.725 48.9632 276.367 49.0653 276.846C49.9196 280.852 53.2951 283.581 57.4005 283.621C59.0623 283.637 60.6929 283.545 62.2644 282.788ZM35.96 292.101C36.0705 290.526 36.4234 289.018 37.1468 287.602C37.7031 286.512 38.4326 285.566 39.3043 284.71C40.0472 283.981 39.8986 283.067 39.0313 282.759C38.5398 282.584 38.1379 282.764 37.7745 283.091C37.0245 283.766 36.4259 284.567 35.8683 285.4C34.4838 287.468 33.8521 289.774 33.7662 292.237C33.7335 293.175 34.3949 293.736 35.1805 293.491C35.7982 293.299 35.9686 292.802 35.96 292.101ZM45.0596 280.563C44.8247 280.06 44.4379 279.755 43.8769 279.849C43.4097 279.927 42.9476 280.079 42.5058 280.255C41.9673 280.47 41.6976 281.036 41.8491 281.509C42.0462 282.125 42.5838 282.453 43.2042 282.32C43.5086 282.254 43.8077 282.163 44.1077 282.078C44.8928 281.857 45.1238 281.519 45.0596 280.563Z" fill="black"/>
<path d="M68.2101 244.654C70.1741 246.25 72.2581 247.528 74.7119 248.105C75.0159 248.176 75.3248 248.257 75.6342 248.27C77.5564 248.35 78.2102 249.893 77.886 251.558C77.6269 252.889 76.7631 253.739 75.4659 254.073C74.7454 254.259 74.4032 254.669 74.1813 255.351C73.5231 257.371 73.2727 259.516 72.3973 261.464C69.9865 266.828 65.8473 270.064 60.0414 270.878C52.2383 271.971 44.9577 267.033 42.9053 259.435C42.5416 258.089 42.1897 256.738 41.8201 255.393C41.6238 254.678 41.2391 254.274 40.5007 254.069C38.5928 253.541 37.6104 251.674 38.1849 249.801C38.5083 248.746 39.3021 248.302 40.3648 248.58C42.49 249.137 44.6293 247.626 44.8032 245.439C44.8594 244.732 44.8967 244.024 44.9352 243.317C44.9817 242.461 45.2197 242.223 46.0923 242.208C47.4468 242.184 48.7995 242.201 50.1544 242.085C54.3514 241.724 58.4432 240.918 62.3791 239.382C63.4549 238.963 63.2654 238.867 63.9432 239.872C65.1394 241.646 66.5648 243.219 68.2101 244.654Z" fill="black"/>
<path d="M50.2391 223.057C56.1279 220.235 61.8136 220.537 67.2923 223.997C69.495 225.388 71.2039 227.287 72.5445 229.526C72.8227 229.99 72.7289 230.242 72.3702 230.58C68.6914 234.039 64.4203 236.465 59.6194 238.003C55.1728 239.427 50.6222 240.084 45.958 240.023C44.0544 239.999 42.8847 241.123 42.7499 243.022C42.6954 243.789 42.6115 244.555 42.5413 245.321C42.5158 245.6 42.4168 245.853 42.2264 246.055C41.9913 246.305 41.6966 246.528 41.35 246.423C40.9827 246.312 41.1013 245.934 41.1003 245.662C41.0913 243.202 41.0426 240.74 41.1065 238.281C41.2821 231.52 44.2713 226.414 50.2391 223.057Z" fill="black"/>
<path d="M84.7281 218.115C86.6826 219.209 88.4973 220.432 90.2495 221.75C91.0056 222.318 91.1841 223.018 90.7359 223.617C90.2668 224.244 89.5126 224.319 88.7477 223.746C86.6896 222.205 84.5312 220.822 82.2669 219.609C77.0198 216.797 71.4611 214.931 65.5593 214.074C63.0993 213.717 60.6271 213.488 58.1531 213.502C46.819 213.565 36.5345 216.875 27.3986 223.638C27.1303 223.837 26.8689 224.048 26.5261 224.106C25.9085 224.21 25.363 223.935 25.1276 223.404C24.8864 222.86 25.0464 222.279 25.5932 221.855C26.8142 220.909 28.0931 220.043 29.4001 219.222C35.4792 215.406 42.0632 212.888 49.1417 211.717C52.7257 211.124 56.3486 210.905 59.984 211.037C65.7579 211.247 71.3621 212.341 76.7753 214.364C79.5134 215.387 82.1637 216.609 84.7281 218.115Z" fill="black"/>
<path d="M42.0299 313.508C45.7162 314.707 49.4463 315.431 53.2531 315.807C56.1454 316.093 59.04 316.134 61.9287 315.896C69.2719 315.292 76.2078 313.285 82.6716 309.71C84.8469 308.507 86.9164 307.143 88.915 305.668C89.3825 305.323 89.8808 305.281 90.3773 305.584C90.8295 305.861 91.0054 306.288 90.9552 306.813C90.9132 307.252 90.6205 307.521 90.3001 307.76C85.3252 311.467 79.9004 314.283 73.966 316.134C70.267 317.288 66.4901 318.011 62.6446 318.336C58.9864 318.644 55.325 318.575 51.6651 318.157C45.3195 317.433 39.321 315.596 33.6318 312.722C30.8713 311.328 28.273 309.667 25.7851 307.832C25.2851 307.463 24.924 307.028 25.061 306.358C25.2358 305.503 26.2163 305.112 26.9898 305.617C27.8094 306.153 28.5874 306.752 29.3973 307.302C33.3008 309.958 37.5057 312.003 42.0299 313.508Z" fill="black"/>
<path d="M104.146 287.117C106.406 282.47 107.875 277.63 108.682 272.575C109.074 270.118 109.241 267.645 109.261 265.17C109.302 259.912 108.573 254.756 107.018 249.716C105.274 244.059 102.632 238.87 99.102 234.126C98.916 233.876 98.7198 233.626 98.6565 233.309C98.5382 232.718 98.7803 232.206 99.2941 231.944C99.8444 231.663 100.43 231.77 100.855 232.314C101.754 233.465 102.587 234.664 103.37 235.897C106.023 240.075 108.094 244.523 109.502 249.268C110.485 252.586 111.163 255.967 111.505 259.417C111.732 261.703 111.791 263.989 111.738 266.28C111.585 272.805 110.244 279.084 107.781 285.125C106.056 289.358 103.803 293.291 101.074 296.955C100.821 297.294 100.554 297.622 100.11 297.699C99.5945 297.788 99.1453 297.633 98.8487 297.195C98.5244 296.717 98.5463 296.211 98.8724 295.734C99.7185 294.494 100.598 293.276 101.413 292.017C102.422 290.458 103.309 288.827 104.146 287.117Z" fill="black"/>
<path d="M7.73853 254.544C7.06327 257.789 6.76353 261.025 6.74021 264.277C6.7157 267.696 6.9836 271.097 7.64091 274.466C9.13916 282.145 12.2438 289.105 16.8797 295.394C17.0642 295.645 17.2786 295.88 17.3414 296.201C17.4614 296.814 17.2032 297.342 16.6566 297.602C16.103 297.864 15.5489 297.736 15.1086 297.169C14.2129 296.015 13.3908 294.808 12.6052 293.577C9.89624 289.33 7.81749 284.792 6.40884 279.959C5.46374 276.717 4.81264 273.413 4.48705 270.041C4.17142 266.772 4.13255 263.504 4.413 260.241C4.86483 254.985 6.03747 249.889 7.9944 244.975C9.73334 240.609 11.9918 236.541 14.7946 232.772C14.8568 232.688 14.9186 232.604 14.9817 232.521C15.5719 231.746 16.2761 231.583 16.909 232.075C17.4897 232.526 17.5222 233.296 16.9774 234.021C13.9374 238.069 11.5704 242.482 9.81125 247.224C8.9329 249.592 8.30747 252.033 7.73853 254.544Z" fill="black"/>
<path d="M113.535 223.568C113.534 220.773 113.534 218.04 113.532 215.308C113.531 214.468 113.528 214.464 112.706 214.464C106.927 214.464 101.149 214.466 95.3711 214.466C95.1416 214.467 94.9105 214.479 94.6831 214.456C94.0672 214.394 93.6055 213.921 93.5424 213.309C93.4866 212.769 93.8701 212.189 94.4381 212.028C94.7138 211.95 95.0135 211.928 95.3024 211.928C101.602 211.924 107.902 211.925 114.201 211.929C114.451 211.929 114.704 211.936 114.948 211.983C115.654 212.117 115.989 212.518 115.993 213.242C116.002 214.557 115.995 215.871 115.995 217.185C115.995 222.316 115.996 227.448 115.996 232.58C115.996 232.705 115.998 232.83 115.995 232.955C115.973 233.759 115.459 234.334 114.76 234.339C114.073 234.344 113.537 233.752 113.536 232.955C113.531 229.847 113.534 226.739 113.535 223.568Z" fill="black"/>
<path d="M14.5612 214.465C10.7655 214.464 7.03233 214.463 3.29919 214.463C2.47166 214.464 2.46986 214.467 2.46966 215.301C2.46829 221.058 2.46775 226.814 2.46684 232.57C2.46681 232.737 2.47177 232.904 2.46405 233.07C2.43039 233.796 1.92642 234.318 1.25086 234.331C0.655145 234.343 0.0793978 233.793 0.011563 233.138C-0.00555469 232.973 0.00257488 232.805 0.00254334 232.638C0.00134146 226.256 0.000209182 219.874 2.36969e-09 213.492C-3.63004e-05 212.38 0.417042 211.931 1.5435 211.93C8.0087 211.921 14.4739 211.926 20.9391 211.928C21.5155 211.929 22.0047 212.113 22.3011 212.651C22.5501 213.102 22.4898 213.532 22.2068 213.945C21.9155 214.37 21.4906 214.472 21.0055 214.47C18.8783 214.463 16.7511 214.466 14.5612 214.465Z" fill="black"/>
<path d="M3.54524 317.587C2.7942 317.586 2.10554 317.596 1.41735 317.582C0.436554 317.563 0.00323997 317.127 0.00281298 316.158C-4.3052e-05 309.67 7.38923e-05 303.182 0.00172755 296.693C0.00196164 295.777 0.473571 295.252 1.27326 295.257C2.05094 295.263 2.46586 295.752 2.4662 296.685C2.46829 302.506 2.46714 308.327 2.46751 314.147C2.46756 315.048 2.46863 315.047 3.34578 315.047C9.16634 315.046 14.9869 315.047 20.8075 315.042C21.4491 315.042 22.0192 315.156 22.3266 315.802C22.6777 316.54 22.2162 317.406 21.38 317.557C21.1365 317.601 20.8812 317.588 20.6313 317.588C14.9568 317.588 9.28232 317.588 3.54524 317.587Z" fill="black"/>
<path d="M113.534 307.816C113.534 304.062 113.531 300.371 113.534 296.679C113.535 295.853 113.859 295.383 114.483 295.269C115.296 295.12 115.976 295.666 115.991 296.517C116.009 297.58 115.995 298.644 115.995 299.707C115.995 305.15 115.996 310.594 115.996 316.037C115.996 317.168 115.592 317.584 114.455 317.585C108.011 317.589 101.567 317.587 95.1225 317.585C94.1927 317.584 93.5559 317.077 93.5403 316.343C93.5237 315.561 94.135 315.048 95.1306 315.048C100.907 315.043 106.684 315.046 112.461 315.046C113.531 315.046 113.532 315.045 113.532 313.947C113.533 311.924 113.533 309.901 113.534 307.816Z" fill="black"/>
<path d="M64.8958 275.839C64.4094 278.74 62.8093 280.641 59.9719 281.205C57.3351 281.729 54.7624 281.538 52.7398 279.392C51.9015 278.502 51.3876 277.455 51.1895 276.248C50.9587 274.842 51.1247 273.434 51.0648 271.881C55.7095 273.71 60.2635 273.657 64.8735 271.923C64.962 273.294 64.9232 274.538 64.8958 275.839Z" fill="black"/>
<path d="M74.8972 238.118C74.8991 240.451 74.9034 242.724 74.8993 244.997C74.8978 245.819 74.7932 245.888 74.0311 245.587C70.4397 244.167 67.8359 241.591 65.6899 238.473C65.4068 238.062 65.6709 237.936 65.9726 237.782C68.3409 236.574 70.5383 235.109 72.5779 233.402C72.9697 233.075 73.2719 232.632 73.8301 232.381C74.6158 234.22 74.7908 236.132 74.8972 238.118Z" fill="black"/>
<path d="M523.458 320C524.397 313.408 525.711 306.798 527.214 300.23C529.057 292.173 531.059 284.152 532.828 276.798C540.126 279.916 547.336 283.014 554.56 286.079C562.461 289.432 569.032 303.746 565.869 311.533C565.287 312.967 562.936 314.225 561.206 314.56C552.266 316.292 543.262 317.699 534.14 319.609C530.639 320 527.277 320 523.458 320Z" fill="black"/>
<path d="M493.461 320C488.268 319.047 483.538 318.083 478.803 317.144C475.878 316.564 472.915 316.143 470.02 315.44C461.382 313.344 460.863 312.802 462.056 303.909C463.256 294.954 467.291 288.154 476.562 284.966C482.899 282.787 488.857 279.505 495.115 276.656C498.481 290.415 502.014 304.863 505.274 319.655C501.307 320 497.614 320 493.461 320Z" fill="black"/>
<path d="M518.542 203C523.306 204.841 527.99 206.108 531.839 208.643C540.09 214.076 544.46 222.007 544.968 232.052C545.042 233.52 546.695 234.895 547.574 236.339C548.734 238.243 550.775 240.158 550.807 242.095C550.894 247.29 552.953 253.249 546.901 256.99C546.248 257.394 546.374 258.9 545.86 259.72C544.552 261.802 543.506 264.879 541.607 265.609C535.039 268.131 528.201 270.041 521.333 271.592C520.307 271.824 518.565 268.886 517.154 267.415C518.541 266.104 519.728 264.226 521.373 263.648C522.876 263.12 525.081 263.576 526.615 264.333C531.311 266.649 536.269 266.527 539.728 263.008C541.405 261.302 544.981 259.457 541.218 256.106C540.532 255.496 540.992 253.554 540.992 252.227C540.995 245.237 541.089 238.246 541.022 231.256C540.892 217.887 528.597 206.633 514.109 206.532C499.956 206.434 487.413 217.469 487.069 230.598C486.843 239.225 487.027 247.863 487.027 256.453C479.507 257.423 477.002 255.322 477.09 248.053C477.148 243.266 475.603 237.679 482.383 235.6C482.863 235.452 483.041 233.882 483.127 232.952C484.606 216.901 492.293 207.699 507.826 203.326C511.361 203 514.723 203 518.542 203Z" fill="black"/>
<path d="M507.465 320C508.116 313.624 509.379 307.267 510.242 300.856C510.446 299.339 509.769 297.176 508.7 296.111C504.95 292.377 507.883 289.498 510.372 288.077C512.323 286.963 516.054 287.364 518.188 288.546C521.501 290.382 522.156 293.438 518.927 296.64C517.992 297.566 517.62 299.616 517.82 301.034C518.677 307.11 519.843 313.143 520.948 319.596C516.643 320 512.286 320 507.465 320Z" fill="black"/>
<path d="M499.1 241.13C496.995 240.456 495.296 239.862 493.384 239.193C492.72 248.672 493.032 257.428 498.934 265.424C504.952 273.579 513.627 274.376 523.515 275.126C516.476 279.482 510.357 279.049 504.72 275.417C494.902 269.092 489.048 260.357 489.589 248.088C489.831 242.613 489.348 237.106 489.582 231.63C490.092 219.704 498.789 210.631 510.891 209.075C522.233 207.616 534.635 214.335 537.316 225.012C540.069 235.977 540.061 247.399 536.906 258.479C536.447 260.091 534.429 261.259 532.44 262.154C536.209 250.985 536.367 240.511 531.148 230.621C528.18 233.797 525.341 236.833 522.502 239.87C522.107 239.526 521.713 239.182 521.318 238.837C521.549 238.003 521.781 237.17 522.266 235.423C514.967 240.654 507.782 243.39 499.1 241.13Z" fill="black"/>
<path d="M506.303 279.052C514.233 282.664 521.004 280.364 527.79 275.563C526.108 280.532 521.504 283.875 516.073 284.445C509.298 285.156 504.181 282.33 500.715 276.147C502.457 277.07 504.199 277.993 506.303 279.052Z" fill="black"/>
<path fill-rule="evenodd" clip-rule="evenodd" d="M300.572 40.7416C300.726 40.7101 300.894 40.6759 301.058 40.6269C302.837 40.0941 304.005 38.8149 304.898 37.2766C305.82 35.6863 306.356 33.9569 306.244 32.082C306.171 30.8667 305.819 29.7573 304.984 28.8258C304.823 28.6468 304.72 28.2961 304.77 28.0643C304.896 27.4853 305.042 26.9102 305.188 26.3353C305.411 25.4542 305.635 24.573 305.785 23.6794C305.957 22.654 306.002 21.6055 306.047 20.5598C306.057 20.3196 306.068 20.0796 306.079 19.84C306.09 19.6245 306.051 19.4072 306.012 19.1895C305.978 18.9978 305.944 18.8058 305.943 18.6143C305.939 17.4431 305.796 16.3016 305.511 15.1604C305.113 13.5636 304.538 12.0939 303.398 10.8622C302.247 9.61906 300.821 9.00645 299.206 8.71886C299.055 8.69209 298.881 8.53252 298.806 8.38804C298.666 8.11774 298.539 7.83934 298.413 7.56094C298.081 6.83088 297.749 6.10082 297.176 5.51683C297.001 5.33876 296.827 5.15845 296.653 4.97799C295.994 4.29315 295.332 3.60566 294.589 3.02998C293.165 1.9284 291.477 1.31754 289.771 0.791367C288.134 0.286145 286.438 0.0847767 284.74 0.0424387C283.641 0.015049 282.528 0.164638 281.438 0.337776C280.26 0.524721 279.067 0.730048 277.944 1.11364C276.75 1.52136 275.579 2.06194 274.49 2.70183C273.332 3.38135 272.336 4.28336 271.478 5.36445C270.833 6.17799 270.366 7.0754 269.897 7.97653L269.896 7.97741C269.79 8.18284 269.683 8.38845 269.573 8.59331C269.478 8.77121 269.309 8.95619 269.13 9.0323C268.9 9.13016 268.661 9.20816 268.422 9.28608C268.113 9.387 267.804 9.48778 267.515 9.63137C266.389 10.1919 265.574 11.1008 264.962 12.1907C263.689 14.4596 263.488 16.9798 263.338 19.502C263.314 19.9058 263.37 20.3153 263.426 20.7238C263.447 20.8709 263.467 21.018 263.483 21.1646C263.517 21.4619 263.548 21.7598 263.578 22.0577L263.591 22.1859C263.685 23.0976 263.778 24.0096 263.936 24.9097C264.125 25.9841 264.428 27.0416 264.743 28.0877C264.84 28.4104 264.842 28.5926 264.61 28.8418C263.755 29.7606 263.307 30.8615 263.332 32.1273C263.339 32.4843 263.374 32.8406 263.408 33.1971C263.436 33.4869 263.464 33.777 263.477 34.0674C263.521 35.0218 263.908 35.865 264.336 36.6778C264.721 37.4067 265.155 38.1239 265.668 38.7651C266.377 39.6518 267.23 40.3614 268.402 40.6089C268.416 40.6118 268.43 40.6146 268.444 40.6174L268.459 40.6203L268.475 40.6233L268.478 40.624C268.73 40.6723 269.031 40.7301 269.168 41.19C269.571 42.5388 270.088 43.8617 270.665 45.1468C271.507 47.0223 272.634 48.7297 274.029 50.2401C275.026 51.3197 276.096 52.3243 277.337 53.1225C278.458 53.8437 279.632 54.4643 280.91 54.8507L280.961 54.8662C281.613 55.0634 282.279 55.2649 282.951 55.3213L283.012 55.3265C284.162 55.4232 285.334 55.5217 286.472 55.3924C287.452 55.281 288.418 54.91 289.353 54.5505L289.408 54.5296C290.251 54.2057 291.07 53.7912 291.846 53.3252C292.6 52.8716 293.326 52.3474 293.991 51.7694C294.058 51.7116 294.123 51.6524 294.188 51.592C294.556 51.247 294.894 50.863 295.238 50.4712C295.384 50.3051 295.531 50.1373 295.683 49.9707C297.04 48.4769 298.052 46.8192 298.848 45.0558C299.466 43.6881 299.956 42.2535 300.379 40.7824C300.439 40.7687 300.503 40.7556 300.57 40.7419L300.572 40.7416ZM274.891 60.4005C274.921 60.4147 274.951 60.4282 274.982 60.4417C275.038 60.4668 275.095 60.4918 275.149 60.5215C275.106 60.498 275.061 60.477 275.012 60.4538C274.969 60.4338 274.923 60.4123 274.873 60.3863C274.76 60.2958 274.657 60.2009 274.559 60.1101C274.456 60.0152 274.358 59.9248 274.258 59.8483C274.36 59.9266 274.459 60.0189 274.56 60.1137L274.561 60.1148C274.655 60.2034 274.752 60.2942 274.856 60.3777C274.862 60.3806 274.867 60.3835 274.873 60.3863L274.881 60.3931L274.891 60.4005ZM280.212 73.1141C279.944 72.784 279.685 72.4647 279.443 72.1375C279.738 72.5356 280.062 72.925 280.418 73.3512L280.419 73.353L280.432 73.3686L281.782 75.5505C281.365 74.8772 280.899 74.1229 280.399 73.3444C280.336 73.2669 280.274 73.1902 280.212 73.1141ZM297.058 22.4178C295.765 22.6996 294.457 22.7725 293.145 22.7057C293.006 22.6986 292.867 22.6917 292.728 22.6848C291.49 22.6232 290.248 22.5614 289.023 22.3864C288.056 22.2483 287.1 22.0395 286.143 21.8307C285.652 21.7238 285.162 21.6167 284.67 21.5192C284.111 21.4083 283.55 21.3026 282.989 21.197C282.225 21.053 281.461 20.909 280.7 20.7517C280.632 20.7376 280.564 20.7223 280.496 20.706C280.202 20.6354 279.912 20.5464 279.622 20.4574C279.46 20.4076 279.297 20.3577 279.134 20.3111C278.961 20.259 278.791 20.2092 278.624 20.1602C278.022 19.9838 277.457 19.818 276.919 19.5954C276.873 19.5766 276.828 19.5573 276.783 19.5376C276.009 19.2 275.252 18.8253 274.494 18.4507C274.139 18.2748 273.783 18.099 273.426 17.9269C273.301 17.8668 273.171 17.8182 273.092 17.7889C273.068 17.7799 273.048 17.7727 273.036 17.7675C272.928 18.1819 272.822 18.5906 272.718 18.9945C272.484 19.9014 272.256 20.7861 272.017 21.668C271.667 22.9646 271.315 24.2615 270.927 25.5472C270.61 26.5981 270.625 27.667 270.639 28.736C270.644 29.0787 270.649 29.4215 270.643 29.7637C270.632 30.3251 270.514 30.8497 270.038 31.171C269.485 31.5444 268.816 31.517 268.364 31.0962C268.044 30.7987 267.84 30.2271 267.827 29.7706C267.792 28.5896 267.801 27.3919 267.963 26.2251C268.062 25.5152 268.282 24.8218 268.501 24.1291C268.587 23.8597 268.672 23.5904 268.75 23.3202C268.87 22.9056 268.996 22.4924 269.123 22.0795L269.165 21.9426L269.175 21.9102L269.178 21.9025C269.477 20.9292 269.777 19.9561 270.005 18.9661C270.156 18.3076 270.23 17.6313 270.303 16.9543C270.353 16.4899 270.404 16.0251 270.479 15.5655L270.484 15.5399C270.588 14.9065 270.69 14.2851 271.444 13.9499C271.99 13.7072 272.352 13.9286 272.715 14.151C272.763 14.1801 272.81 14.2093 272.858 14.2374C273.162 14.4151 273.449 14.6222 273.736 14.8292C274.076 15.0747 274.416 15.3199 274.782 15.5155C275.879 16.1005 276.99 16.6856 278.153 17.1081C279.384 17.555 280.661 17.8795 281.933 18.2029C282.063 18.2358 282.192 18.2687 282.321 18.3016C282.816 18.4279 283.32 18.5144 283.824 18.601C284.17 18.6603 284.515 18.7195 284.858 18.7916C285.422 18.9104 285.985 19.0385 286.548 19.1665L286.549 19.1667C287.076 19.2868 287.605 19.407 288.134 19.5194C288.517 19.6007 288.909 19.6417 289.299 19.6795C289.993 19.7466 290.687 19.8033 291.382 19.8532C291.576 19.8671 291.77 19.8838 291.963 19.9004C292.507 19.9473 293.052 19.9941 293.594 19.9796C294.836 19.9464 296.073 19.8812 297.293 19.5594C298.604 19.214 299.39 19.6203 299.966 21.0221C300.464 22.2343 300.829 23.5085 301.17 24.7778C301.334 25.3898 301.388 26.0356 301.441 26.675L301.442 26.6771L301.442 26.6794L301.442 26.682L301.442 26.6863L301.443 26.6892L301.443 26.6908C301.446 26.7281 301.449 26.7656 301.452 26.8028C301.453 26.8071 301.453 26.8115 301.453 26.8158C301.454 26.8282 301.455 26.8406 301.456 26.8529C301.458 26.8664 301.459 26.8799 301.46 26.8933C301.46 26.8969 301.46 26.9005 301.461 26.9041L301.464 26.9473C301.546 27.8856 301.603 28.8273 301.632 29.7687C301.659 30.6806 301.434 30.9799 300.582 31.3184C299.909 31.5861 298.967 31 298.936 30.2823C298.92 29.918 298.912 29.5529 298.904 29.1877L298.902 29.1144C298.885 28.3189 298.869 27.5232 298.777 26.7365C298.692 26.0078 298.499 25.2908 298.306 24.5755L298.306 24.5741C298.249 24.3621 298.192 24.1499 298.138 23.9379C298.097 23.7783 298.031 23.6236 297.965 23.4694C297.877 23.263 297.789 23.0578 297.763 22.8436C297.701 22.3278 297.364 22.3512 297.058 22.4178ZM301.46 26.8933L301.456 26.8529L301.453 26.8158C301.455 26.8417 301.458 26.8675 301.46 26.8933Z" fill="black"/>
<path d="M330.774 98.0479C330.244 98.5608 327.811 100.889 327.236 101.35C326.218 102.167 325.177 102.955 324.137 103.743L324.054 103.806C323.237 104.425 322.421 105.049 321.577 105.63C320.721 106.218 319.842 106.774 318.954 107.313C317.952 107.921 316.95 108.537 315.909 109.072C314.376 109.86 312.814 110.59 311.255 111.324C310.152 111.844 309.062 112.412 307.916 112.813C305.861 113.532 303.776 114.168 301.689 114.786C300.761 115.06 299.797 115.207 298.849 115.41C297.938 115.604 297.029 115.815 296.114 115.985C295.417 116.114 294.712 116.19 294.01 116.287C292.94 116.435 291.873 116.608 290.8 116.718C289.855 116.815 288.902 116.838 287.952 116.904C287.946 116.905 287.939 116.906 287.932 116.908C287.867 116.925 287.807 116.997 287.744 117.039C285.807 117.039 283.869 117.039 281.858 116.996C280.972 116.884 280.15 116.824 279.334 116.74C279.281 116.734 279.227 116.729 279.174 116.723C277.936 116.59 276.7 116.442 275.465 116.282C274.39 116.143 273.31 116.023 272.248 115.813C270.992 115.565 269.741 115.27 268.509 114.922C266.88 114.461 265.249 113.988 263.658 113.411C261.665 112.687 259.694 111.893 257.746 111.052C256.498 110.513 255.3 109.85 254.096 109.212L254.019 109.171C253.055 108.661 252.088 108.148 251.172 107.56C249.383 106.412 247.607 105.24 245.87 104.014C244.568 103.095 243.309 102.109 242.082 101.09C241.017 100.206 240.007 99.2514 239.005 98.2935C239.057 97.8886 239.589 92.2044 239.643 91.7998C239.836 90.3653 240.029 88.9309 240.224 87.4968C240.284 87.0556 240.346 86.6143 240.418 86.175C240.55 85.37 240.714 84.5696 240.823 83.7615C240.945 82.8514 240.99 81.9302 241.125 81.0225C241.297 79.8685 241.546 78.7263 241.725 77.5731C241.938 76.1978 242.107 74.8155 242.305 73.4376C242.495 72.1079 243.078 70.9564 243.948 69.957C244.86 68.9087 246.043 68.2396 247.327 67.8032C248.602 67.3701 249.921 67.0684 251.22 66.7079C252.301 66.4078 253.385 66.1177 254.462 65.8013C255.247 65.5707 256.016 65.285 256.802 65.0589C257.748 64.7867 258.705 64.5542 259.656 64.2998C260.254 64.1399 260.849 63.9715 261.445 63.8069L261.53 63.9482C260.658 65.626 259.758 67.2903 258.923 68.9867C258.422 70.003 258.325 70.3756 259.249 71.2508C260.593 72.523 261.887 73.8485 263.261 75.2093C262.288 75.8222 261.404 76.3695 260.53 76.9335C259.94 77.3147 259.21 77.6237 259.126 78.4269C259.08 78.8671 259.203 79.3727 259.393 79.782C260.126 81.37 260.913 82.9332 261.688 84.5018C262.148 85.4343 262.61 86.3669 263.095 87.2869C263.952 88.9137 264.829 90.5294 265.693 92.1527C266.349 93.3844 266.985 94.6263 267.649 95.8534C268.429 97.2968 269.244 98.7218 270.016 100.17C270.311 100.725 270.795 101.158 271.335 101.085C272.607 100.912 273.029 100.007 272.549 98.8193C272.308 98.2246 271.869 97.7147 271.556 97.146C270.29 94.8444 269.031 92.5389 267.785 90.2262C267.351 89.422 266.975 88.5868 266.553 87.7761C265.778 86.2877 264.973 84.8148 264.209 83.3208C263.493 81.921 262.813 80.5023 262.118 79.0916C263.42 78.2542 264.618 77.3846 265.909 76.6918C266.626 76.3072 266.908 75.1736 266.342 74.5268C265.895 74.016 265.343 73.5998 264.849 73.1299C263.971 72.2953 263.108 71.4444 262.225 70.6152C261.761 70.1798 261.668 69.8012 261.967 69.2194C262.368 68.4363 262.799 67.668 263.186 66.8774C263.649 65.9295 264.056 64.9534 264.53 64.0109C264.959 63.1555 265.367 62.271 265.927 61.5043C266.598 60.5836 267.669 60.1928 268.706 59.8172C269.18 59.6458 269.669 59.5192 270.185 59.3621C270.119 59.6449 270.033 59.8349 270.039 60.0222C270.077 61.371 270.124 62.7199 270.191 64.0676C270.214 64.5341 270.289 64.9991 270.359 65.4618C270.49 66.3247 270.631 67.1862 270.775 68.047C270.904 68.8185 271.043 69.5882 271.178 70.3588C271.293 71.0203 271.407 71.6822 271.525 72.3432C271.692 73.2679 271.853 74.1936 272.033 75.1157C272.202 75.9836 272.404 76.8451 272.57 77.7134C272.734 78.5687 272.849 79.4339 273.026 80.2862C273.248 81.3536 273.513 82.4119 273.755 83.4751C273.99 84.5084 274.216 85.544 274.454 86.5766C274.668 87.5028 274.906 88.4233 275.111 89.3515C275.374 90.544 275.586 91.7482 275.87 92.9353C276.181 94.2366 276.554 95.5228 276.891 96.8179C277.21 98.0448 277.499 99.2799 277.836 100.502C278.145 101.62 278.511 102.723 278.834 103.839C279.238 105.238 279.571 106.661 280.036 108.038C280.439 109.232 281.541 109.396 282.348 108.608C282.957 108.012 282.72 107.277 282.529 106.58C282.398 106.106 282.235 105.641 282.105 105.167C281.835 104.181 281.592 103.187 281.312 102.203C280.99 101.073 280.629 99.9536 280.308 98.8229C280.015 97.7912 279.731 96.756 279.486 95.712C279.267 94.7775 278.728 93.8841 279.102 92.8593C279.203 92.583 279.224 92.2764 279.276 91.9828C279.38 91.4051 279.461 90.8226 279.586 90.2498C279.767 89.4208 279.996 88.6025 280.173 87.7727C280.351 86.9387 280.464 86.0903 280.652 85.2588C280.865 84.3163 281.163 83.3929 281.363 82.448C281.654 81.074 281.89 79.6881 282.149 78.3062H287.146C287.172 78.5022 287.183 78.6814 287.222 78.8539C287.601 80.5271 287.99 82.1982 288.366 83.872C288.54 84.6431 288.689 85.4197 288.854 86.1926L288.892 86.3697L288.893 86.3716C289.11 87.3855 289.327 88.3995 289.554 89.4111C289.682 89.9783 289.853 90.5359 289.969 91.1051C290.15 91.9897 290.434 92.882 290.423 93.7681C290.415 94.5144 290.057 95.2587 289.84 96C289.301 97.8465 288.742 99.6869 288.215 101.537C287.702 103.342 287.227 105.158 286.72 106.965C286.45 107.925 286.694 108.455 287.547 108.962C288.122 109.304 289.13 108.87 289.28 108.175C289.428 107.493 289.625 106.821 289.822 106.151L289.861 106.021C290.351 104.35 290.86 102.685 291.349 101.015C291.7 99.8169 292.041 98.6158 292.367 97.4109C292.593 96.5783 292.788 95.7374 292.994 94.8993C293.272 93.7664 293.552 92.634 293.82 91.4987C293.998 90.7425 294.151 89.9802 294.326 89.2232C294.501 88.4685 294.693 87.718 294.871 86.964C295.045 86.2248 295.214 85.4843 295.378 84.7428C295.554 83.9456 295.719 83.1459 295.894 82.3486C296.061 81.59 296.249 80.836 296.402 80.0747C296.577 79.2022 296.715 78.322 296.886 77.4486C297.067 76.531 297.278 75.6195 297.457 74.7018C297.63 73.8163 297.778 72.9259 297.941 72.0384C298.12 71.0618 298.322 70.0889 298.481 69.1091C298.613 68.3012 298.694 67.4849 298.805 66.6734C298.948 65.6304 299.151 64.5926 299.232 63.545C299.335 62.2185 299.341 60.8844 299.394 59.5537C299.396 59.492 299.446 59.4322 299.476 59.3648C299.948 59.5199 300.388 59.6802 300.836 59.8088C302.464 60.2755 303.633 61.263 304.309 62.8401C304.607 63.5366 304.931 64.2227 305.265 64.903C306.06 66.5222 306.872 68.1327 307.657 69.7561C307.705 69.8546 307.631 70.0817 307.539 70.1695C306.863 70.814 306.153 71.4225 305.483 72.0731C304.675 72.8581 303.897 73.6755 303.103 74.4751C302.598 74.9826 302.55 75.8005 303.113 76.2272C304.075 76.9571 305.099 77.6051 306.1 78.2835C306.492 78.5491 306.891 78.8039 307.285 79.0623C306.913 79.7962 306.589 80.4449 306.256 81.0889C304.917 83.6806 303.582 86.2741 302.233 88.8606C301.343 90.5657 300.44 92.2636 299.531 93.9576C299.012 94.9223 298.46 95.8685 297.938 96.8311L297.931 96.845C297.547 97.5516 297.163 98.2602 296.824 98.9887C296.508 99.6668 296.849 100.575 297.486 100.898C298.098 101.207 299.054 100.857 299.394 100.209C300.085 98.8943 300.77 97.5768 301.476 96.2713C302.36 94.6395 303.268 93.0216 304.156 91.3921C304.853 90.1129 305.548 88.8322 306.219 87.5392C306.73 86.5543 307.214 85.5547 307.689 84.5514C308.567 82.6956 309.414 80.8244 310.312 78.9786C310.489 78.615 310.341 78.3978 310.19 78.1385C309.759 77.3947 308.969 77.0953 308.315 76.6319C307.64 76.1532 306.933 75.719 306.204 75.2417C307.595 73.8448 308.913 72.501 310.254 71.1813C310.874 70.5709 310.987 70.117 310.578 69.3161C309.831 67.8545 309.107 66.3807 308.391 64.9032C308.22 64.5495 308.12 64.1609 307.96 63.712C308.662 63.9351 309.25 64.146 309.851 64.308C311.393 64.7237 312.948 65.0925 314.484 65.5272C316.146 65.9973 317.794 66.5169 319.445 67.0228C320.55 67.3611 321.647 67.7242 322.754 68.0549C323.415 68.2526 323.917 68.6838 324.475 69.0632C325.721 69.9109 326.468 71.1114 326.928 72.4665C327.278 73.4978 327.378 74.6185 327.555 75.7049C327.726 76.7453 327.847 77.7937 328 78.837C328.145 79.8225 328.311 80.805 328.456 81.7904C328.615 82.8652 328.773 83.9402 328.908 85.0182C329.017 85.8926 329.084 86.7723 329.185 87.6479C329.234 88.0712 329.323 88.4897 329.388 88.9113L329.405 89.0209L329.405 89.0222C329.538 89.8828 329.671 90.7434 329.797 91.605C329.873 92.1225 330.706 97.5292 330.774 98.0479Z" fill="black"/>
<path d="M280.432 73.3686L281.782 75.5505C281.907 75.5303 282.015 75.5093 282.113 75.4904C282.297 75.4548 282.443 75.4265 282.589 75.4255C283.956 75.4158 285.324 75.4186 286.691 75.4235C286.701 75.4235 286.711 75.4235 286.721 75.4235C286.872 75.4238 287.04 75.424 287.16 75.4928C287.491 75.6815 287.602 75.5152 287.779 75.2513C288.498 74.1746 289.24 73.1123 290.004 72.0668C290.283 71.6846 290.31 71.3902 290.014 71.0002C289.441 70.2452 288.906 69.4608 288.373 68.6756C288.11 68.2876 287.862 67.8889 287.639 67.5293C287.546 67.3794 287.457 67.2363 287.373 67.1036C285.527 67.6141 283.833 67.6528 282.069 67.0747C281.955 67.2522 281.841 67.4347 281.724 67.6193C281.458 68.0435 281.182 68.4815 280.894 68.9111C280.687 69.2194 280.476 69.5248 280.265 69.8298L280.174 69.9604L280.174 69.9613C279.86 70.4126 279.547 70.8647 279.246 71.3242C279.164 71.4501 279.146 71.7206 279.225 71.835C279.296 71.9368 279.368 72.0375 279.443 72.1375C279.738 72.5356 280.062 72.925 280.418 73.3512L280.419 73.353L280.432 73.3686Z" fill="black"/>
<path d="M295.803 58.8079C295.515 57.6087 295.298 56.3913 295.084 55.1756C295.009 54.75 294.873 54.6336 294.516 54.8988C293.267 55.8284 291.933 56.5845 290.48 57.1519C289.163 57.6666 287.808 58.0598 286.413 58.1435C284.784 58.2413 283.127 58.3081 281.527 57.848L281.383 57.8066C280.269 57.4868 279.147 57.1643 278.092 56.6975C277.295 56.345 276.543 55.8885 275.792 55.4325C275.527 55.2714 275.261 55.1104 274.994 54.954C274.865 54.8785 274.753 54.773 274.613 54.6401C274.538 54.5696 274.455 54.4913 274.357 54.4058C274.357 54.5652 274.363 54.706 274.368 54.8329C274.377 55.0741 274.385 55.2669 274.349 55.4509C274.241 55.9979 274.124 56.5433 274.007 57.0883C273.875 57.7005 273.743 58.3127 273.625 58.9276C273.572 59.2028 273.516 59.5137 273.955 59.6737C274.062 59.7127 274.161 59.7739 274.258 59.8483C274.358 59.9248 274.456 60.0152 274.559 60.1101C274.657 60.2009 274.76 60.2958 274.873 60.3863C274.923 60.4123 274.969 60.4338 275.012 60.4538C275.061 60.477 275.106 60.498 275.149 60.5215C275.157 60.5264 275.166 60.5314 275.175 60.5365C275.471 60.7127 275.763 60.8978 276.055 61.0828C276.687 61.483 277.319 61.8833 277.992 62.1938C279.286 62.7914 280.611 63.3212 281.936 63.8508L281.938 63.8515C282.322 64.005 282.706 64.1586 283.09 64.3138C283.117 64.3247 283.143 64.3356 283.17 64.3465C284.023 64.6925 284.878 65.0398 285.801 64.4814C285.964 64.3823 286.152 64.3248 286.34 64.2672C286.451 64.2333 286.561 64.1994 286.668 64.1569C287.055 64.0019 287.447 63.8536 287.839 63.7057C288.766 63.3551 289.694 63.0045 290.574 62.5596C292.115 61.781 293.594 60.8717 295.067 59.9654L295.143 59.919C295.161 59.9079 295.179 59.8967 295.198 59.8854C295.543 59.675 295.951 59.4266 295.803 58.8079Z" fill="black"/>
<path d="M303.815 299.838C305.907 298.914 307.806 297.602 309.409 295.972C309.941 295.3 310.194 294.449 310.116 293.596C310.037 292.742 309.633 291.952 308.988 291.388C307.592 290.18 304.327 287.365 304.327 275.45V267.717C304.322 262.592 302.284 257.678 298.66 254.054C295.035 250.43 290.121 248.391 284.996 248.386C279.871 248.393 274.959 250.432 271.335 254.056C267.711 257.68 265.672 262.593 265.665 267.717V275.45C265.665 287.365 262.398 290.18 260.973 291.408C260.339 291.97 259.944 292.753 259.869 293.597C259.793 294.441 260.043 295.282 260.567 295.948C262.173 297.588 264.075 298.908 266.173 299.838C264.162 301.191 262.527 303.034 261.423 305.193C260.32 307.351 259.784 309.756 259.866 312.179C259.866 313.717 260.477 315.192 261.564 316.28C262.652 317.367 264.127 317.978 265.665 317.978H304.327C305.865 317.978 307.34 317.367 308.428 316.28C309.516 315.192 310.127 313.717 310.127 312.179C310.208 309.755 309.671 307.351 308.567 305.192C307.463 303.033 305.827 301.191 303.815 299.838ZM306.032 293.934C303.935 295.508 301.624 296.776 299.17 297.698C298.346 297.465 297.506 297.297 296.657 297.193L294.337 296.903L293.51 292.751C297.134 289.79 299.542 285.599 300.275 280.976C300.42 280.932 300.556 280.864 300.697 280.806C301.569 289.368 304.403 292.477 306.032 293.934ZM290.795 298.798C290.732 299.521 290.154 302.513 284.996 302.513C279.924 302.513 279.282 299.664 279.197 298.794L279.949 295.024C280.957 295.553 282.002 296.009 283.075 296.389C284.313 296.821 285.66 296.821 286.898 296.389C287.971 296.009 289.016 295.553 290.024 295.024L290.795 298.798ZM300.461 275.45V275.461C300.458 275.972 300.253 276.461 299.891 276.821C299.529 277.181 299.039 277.383 298.528 277.383C298.017 277.383 297.527 277.585 297.164 277.946C296.802 278.306 296.597 278.795 296.595 279.306C296.595 279.693 296.376 288.949 285.624 292.741C285.217 292.883 284.775 292.883 284.368 292.741C273.614 288.951 273.397 279.703 273.397 279.316C273.397 278.803 273.194 278.312 272.831 277.949C272.469 277.587 271.977 277.383 271.464 277.383C271.18 277.383 270.9 277.321 270.643 277.2C270.386 277.08 270.158 276.904 269.976 276.686C269.795 276.468 269.664 276.212 269.592 275.937C269.52 275.662 269.51 275.375 269.562 275.096C269.667 274.642 269.924 274.238 270.29 273.951C270.657 273.663 271.111 273.51 271.576 273.517C278.226 273.642 284.739 271.619 290.148 267.748C290.678 269.472 291.762 270.973 293.234 272.016C294.705 273.06 296.48 273.587 298.282 273.517C298.557 273.479 298.836 273.501 299.1 273.581C299.365 273.662 299.609 273.798 299.816 273.982C300.023 274.166 300.188 274.392 300.299 274.645C300.411 274.899 300.466 275.173 300.461 275.45ZM274.074 256.786C275.502 255.343 277.204 254.199 279.079 253.42C280.954 252.642 282.966 252.245 284.996 252.252C289.096 252.256 293.028 253.887 295.927 256.786C298.826 259.686 300.457 263.617 300.461 267.717V270.037C299.784 269.794 299.073 269.664 298.354 269.65C297.316 269.736 296.282 269.449 295.437 268.841C294.593 268.232 293.993 267.343 293.745 266.331C293.523 265.762 293.17 265.253 292.714 264.846C292.258 264.44 291.713 264.146 291.122 263.99C290.526 263.832 289.901 263.815 289.297 263.941C288.693 264.066 288.127 264.331 287.643 264.713C282.974 268.085 277.322 269.821 271.565 269.65C270.871 269.653 270.183 269.776 269.531 270.014V267.717C269.524 265.685 269.922 263.671 270.702 261.794C271.482 259.917 272.629 258.214 274.074 256.786ZM263.962 293.932C265.617 292.448 268.435 289.314 269.28 280.772C269.423 280.832 269.549 280.926 269.698 280.965C270.431 285.588 272.839 289.781 276.463 292.743L275.642 296.907L273.336 297.197C272.486 297.301 271.646 297.469 270.823 297.702C268.368 296.778 266.058 295.509 263.962 293.932ZM304.327 314.112H265.665C265.152 314.112 264.661 313.908 264.298 313.546C263.936 313.183 263.732 312.691 263.732 312.179C263.655 309.38 264.66 306.66 266.538 304.583C268.415 302.507 271.021 301.233 273.813 301.029L275.706 300.791C276.57 303.389 279.116 306.379 284.996 306.379C290.877 306.379 293.423 303.389 294.287 300.791L296.185 301.029C298.976 301.234 301.581 302.508 303.457 304.585C305.334 306.661 306.338 309.381 306.26 312.179C306.26 312.691 306.057 313.183 305.694 313.546C305.332 313.908 304.84 314.112 304.327 314.112Z" fill="black"/>
<path d="M302.201 214.267C301.961 213.514 301.513 212.845 300.908 212.338C300.302 211.83 299.566 211.505 298.783 211.4L291.864 210.416L288.771 204.3C288.415 203.607 287.875 203.026 287.21 202.62C286.545 202.215 285.781 202 285.002 202C284.223 202 283.459 202.215 282.794 202.62C282.129 203.026 281.589 203.607 281.232 204.3L278.139 210.416L271.221 211.4C270.436 211.503 269.697 211.827 269.09 212.335C268.482 212.843 268.032 213.513 267.791 214.267C267.553 215.006 267.528 215.798 267.721 216.551C267.914 217.304 268.317 217.986 268.882 218.52L273.863 223.269L272.688 229.967C272.552 230.73 272.633 231.515 272.923 232.233C273.212 232.951 273.699 233.573 274.325 234.027C274.962 234.498 275.717 234.78 276.507 234.843C277.296 234.906 278.086 234.745 278.789 234.381L284.996 231.181L291.194 234.369C291.896 234.736 292.687 234.898 293.477 234.836C294.267 234.773 295.023 234.49 295.659 234.017C296.286 233.563 296.772 232.941 297.061 232.223C297.351 231.505 297.432 230.72 297.297 229.958L296.121 223.262L301.103 218.512C301.668 217.98 302.071 217.299 302.265 216.548C302.46 215.797 302.437 215.006 302.201 214.267ZM298.441 215.726L292.703 221.191C292.47 221.41 292.295 221.684 292.194 221.988C292.093 222.292 292.069 222.616 292.124 222.931L293.477 230.644C293.488 230.697 293.482 230.751 293.46 230.8C293.439 230.85 293.403 230.891 293.357 230.919C293.299 230.962 293.23 230.988 293.158 230.993C293.086 230.998 293.014 230.983 292.951 230.948L285.868 227.306C285.595 227.165 285.292 227.092 284.985 227.092C284.677 227.092 284.374 227.165 284.101 227.306L277.016 230.95C276.954 230.985 276.882 231.001 276.81 230.996C276.737 230.99 276.669 230.964 276.612 230.919C276.566 230.891 276.53 230.85 276.509 230.801C276.487 230.753 276.482 230.698 276.492 230.646L277.846 222.931C277.902 222.616 277.879 222.293 277.779 221.989C277.68 221.686 277.507 221.411 277.275 221.191L271.559 215.726C271.517 215.695 271.487 215.651 271.473 215.6C271.458 215.55 271.461 215.497 271.48 215.448C271.498 215.387 271.535 215.333 271.585 215.294C271.635 215.255 271.697 215.232 271.76 215.229L279.686 214.104C279.993 214.059 280.284 213.94 280.535 213.759C280.787 213.577 280.991 213.338 281.13 213.061L284.673 206.051C284.706 205.995 284.754 205.948 284.81 205.916C284.867 205.884 284.931 205.867 284.996 205.867C285.061 205.867 285.125 205.884 285.182 205.916C285.239 205.948 285.286 205.995 285.319 206.051L288.862 213.061C289.003 213.339 289.208 213.579 289.461 213.761C289.714 213.943 290.008 214.06 290.316 214.104L298.242 215.229C298.305 215.232 298.367 215.255 298.417 215.294C298.467 215.333 298.504 215.387 298.522 215.448C298.54 215.498 298.541 215.552 298.525 215.602C298.509 215.653 298.477 215.696 298.433 215.726H298.441Z" fill="black"/>
<path d="M261.837 242.113L260.983 236.909L264.588 233.236C265.076 232.742 265.417 232.122 265.573 231.446C265.728 230.769 265.693 230.063 265.47 229.405C265.26 228.763 264.877 228.192 264.362 227.755C263.848 227.317 263.222 227.032 262.555 226.929L257.633 226.182L255.42 221.493C255.131 220.864 254.667 220.332 254.085 219.958C253.502 219.585 252.825 219.386 252.133 219.386C251.441 219.386 250.764 219.585 250.182 219.958C249.599 220.332 249.136 220.864 248.847 221.493L246.632 226.177L241.712 226.929C241.044 227.032 240.417 227.318 239.902 227.756C239.387 228.194 239.004 228.766 238.795 229.409C238.572 230.066 238.536 230.772 238.692 231.448C238.847 232.125 239.187 232.744 239.674 233.238L243.282 236.911L242.429 242.113C242.309 242.806 242.388 243.52 242.657 244.17C242.926 244.82 243.374 245.38 243.948 245.786C244.497 246.178 245.144 246.406 245.817 246.445C246.489 246.484 247.159 246.332 247.749 246.007L252.133 243.602L256.516 246.007C257.105 246.333 257.776 246.485 258.449 246.446C259.122 246.407 259.77 246.178 260.318 245.786C260.893 245.38 261.341 244.82 261.61 244.17C261.879 243.52 261.958 242.806 261.837 242.113ZM257.005 236.569L258.054 242.442L253.061 239.703C252.777 239.547 252.458 239.465 252.133 239.465C251.809 239.465 251.49 239.547 251.205 239.703L246.301 242.394L247.258 236.573C247.307 236.272 247.285 235.965 247.193 235.674C247.101 235.384 246.942 235.12 246.728 234.903L242.545 230.706L248.232 229.844C248.545 229.796 248.842 229.673 249.096 229.484C249.35 229.296 249.554 229.047 249.69 228.761L252.133 223.592L254.577 228.761C254.712 229.047 254.916 229.296 255.171 229.484C255.425 229.673 255.721 229.796 256.034 229.844L261.667 230.7L257.546 234.899C257.331 235.115 257.17 235.379 257.077 235.669C256.983 235.96 256.96 236.268 257.009 236.569H257.005Z" fill="black"/>
<path d="M247.333 256.602L243.401 256.005L241.629 252.252C241.362 251.674 240.935 251.185 240.398 250.842C239.862 250.498 239.238 250.316 238.601 250.316C237.965 250.316 237.341 250.498 236.805 250.842C236.268 251.185 235.841 251.674 235.574 252.252L233.802 256.001L229.868 256.598C229.252 256.694 228.676 256.958 228.202 257.362C227.728 257.765 227.375 258.293 227.183 258.885C226.978 259.489 226.944 260.139 227.087 260.761C227.23 261.384 227.543 261.954 227.991 262.409L230.89 265.349L230.204 269.527C230.094 270.164 230.167 270.819 230.414 271.417C230.662 272.014 231.073 272.529 231.602 272.902C232.108 273.263 232.707 273.473 233.329 273.507C233.95 273.542 234.569 273.399 235.112 273.095L238.601 271.185L242.098 273.105C242.642 273.408 243.26 273.551 243.882 273.517C244.503 273.483 245.102 273.273 245.609 272.912C246.137 272.539 246.549 272.024 246.796 271.426C247.044 270.829 247.117 270.174 247.007 269.536L246.32 265.359L249.22 262.419C249.668 261.964 249.981 261.393 250.124 260.771C250.266 260.149 250.233 259.499 250.028 258.895C249.836 258.3 249.482 257.77 249.006 257.366C248.53 256.961 247.951 256.696 247.333 256.602ZM242.876 263.339C242.662 263.556 242.503 263.82 242.412 264.111C242.32 264.401 242.298 264.709 242.348 265.009L243.036 269.208L239.531 267.284C239.246 267.128 238.927 267.046 238.601 267.046C238.276 267.046 237.957 267.128 237.672 267.284L234.167 269.208L234.855 265.011C234.905 264.711 234.883 264.403 234.791 264.113C234.7 263.822 234.541 263.558 234.327 263.341L231.329 260.29L235.398 259.674C235.712 259.626 236.009 259.503 236.264 259.314C236.518 259.125 236.722 258.876 236.858 258.589L238.601 254.899L240.341 258.589C240.477 258.876 240.681 259.125 240.936 259.314C241.19 259.503 241.487 259.626 241.801 259.674L245.87 260.29L242.876 263.339Z" fill="black"/>
<path d="M326.044 245.786C326.619 245.38 327.066 244.82 327.335 244.17C327.604 243.52 327.683 242.806 327.563 242.113L326.709 236.909L330.314 233.236C330.802 232.742 331.143 232.122 331.298 231.446C331.454 230.769 331.418 230.063 331.196 229.405C330.986 228.763 330.603 228.192 330.088 227.755C329.574 227.317 328.948 227.032 328.28 226.929L323.359 226.182L321.145 221.493C320.856 220.864 320.393 220.332 319.811 219.958C319.228 219.585 318.551 219.386 317.859 219.386C317.167 219.386 316.49 219.585 315.907 219.958C315.325 220.332 314.862 220.864 314.573 221.493L312.357 226.177L307.436 226.923C306.767 227.027 306.141 227.314 305.626 227.753C305.111 228.192 304.728 228.765 304.521 229.409C304.298 230.066 304.262 230.772 304.417 231.448C304.573 232.125 304.913 232.744 305.4 233.238L309.007 236.911L308.153 242.115C308.033 242.808 308.112 243.521 308.381 244.172C308.65 244.822 309.098 245.382 309.672 245.788C310.22 246.18 310.868 246.408 311.541 246.447C312.213 246.486 312.883 246.334 313.473 246.008L317.859 243.602L322.241 246.007C322.831 246.333 323.501 246.485 324.174 246.446C324.847 246.407 325.496 246.178 326.044 245.786ZM317.859 239.465C317.535 239.465 317.216 239.547 316.931 239.703L312.027 242.394L312.993 236.573C313.043 236.272 313.021 235.965 312.929 235.674C312.837 235.384 312.677 235.12 312.464 234.903L308.271 230.706L313.958 229.844C314.271 229.796 314.568 229.673 314.822 229.484C315.076 229.296 315.28 229.047 315.416 228.761L317.859 223.592L320.302 228.761C320.438 229.047 320.642 229.296 320.896 229.484C321.15 229.673 321.447 229.796 321.76 229.844L327.393 230.7L323.272 234.899C323.058 235.116 322.899 235.38 322.807 235.671C322.715 235.961 322.693 236.269 322.742 236.569L323.792 242.442L318.787 239.703C318.502 239.547 318.183 239.465 317.859 239.465Z" fill="black"/>
<path d="M340.123 256.602L336.191 256.005L334.418 252.252C334.152 251.674 333.725 251.183 333.188 250.84C332.652 250.496 332.028 250.313 331.391 250.313C330.754 250.313 330.13 250.496 329.593 250.84C329.057 251.183 328.63 251.674 328.364 252.252L326.591 256.001L322.657 256.598C322.042 256.693 321.466 256.957 320.992 257.36C320.518 257.763 320.165 258.289 319.972 258.881C319.767 259.486 319.734 260.135 319.876 260.758C320.019 261.38 320.332 261.95 320.78 262.405L323.68 265.345L322.993 269.523C322.883 270.16 322.956 270.815 323.204 271.413C323.451 272.01 323.863 272.525 324.391 272.898C324.898 273.259 325.497 273.469 326.118 273.504C326.74 273.538 327.358 273.395 327.902 273.091L331.391 271.185L334.888 273.105C335.431 273.408 336.05 273.551 336.671 273.517C337.293 273.483 337.892 273.273 338.398 272.912C338.927 272.539 339.338 272.024 339.586 271.426C339.833 270.829 339.906 270.174 339.796 269.536L339.11 265.359L342.009 262.419C342.457 261.964 342.77 261.393 342.913 260.771C343.056 260.149 343.022 259.499 342.817 258.895C342.625 258.3 342.272 257.77 341.796 257.366C341.32 256.961 340.74 256.696 340.123 256.602ZM335.665 263.339C335.452 263.556 335.293 263.82 335.201 264.111C335.109 264.401 335.087 264.709 335.137 265.009L335.825 269.208L332.321 267.284C332.036 267.128 331.716 267.046 331.391 267.046C331.066 267.046 330.746 267.128 330.461 267.284L326.956 269.208L327.644 265.009C327.694 264.709 327.672 264.401 327.581 264.111C327.489 263.82 327.33 263.556 327.117 263.339L324.118 260.29L328.188 259.674C328.501 259.626 328.798 259.503 329.053 259.314C329.307 259.125 329.511 258.876 329.647 258.589L331.387 254.899L333.127 258.589C333.262 258.876 333.466 259.125 333.721 259.314C333.976 259.503 334.273 259.626 334.586 259.674L338.655 260.29L335.665 263.339Z" fill="black"/>
</svg>
